<?xml version="1.0" encoding="utf-8"?>
<!-- Generator: Adobe Illustrator 16.0.0, SVG Export Plug-In . SVG Version: 6.00 Build 0)  -->
<!DOCTYPE svg PUBLIC "-//W3C//DTD SVG 1.1//EN" "http://www.w3.org/Graphics/SVG/1.1/DTD/svg11.dtd">
<svg version="1.1" id="Layer_1" xmlns="http://www.w3.org/2000/svg" xmlns:xlink="http://www.w3.org/1999/xlink" x="0px" y="0px"
	 width="400px" height="400px" viewBox="0 0 400 400" enable-background="new 0 0 400 400" xml:space="preserve">
<g>
	<path fill-rule="evenodd" clip-rule="evenodd" fill="#F9BC7A" d="M293.621,77.053c1.994,1.516,3.983,3.037,5.981,4.547
		c3.162,2.762,2.872,6.298,2.261,9.918c-2.487,5.656-5.296,11.077-11.488,13.582c-6.844-2.287-5.745,5.946-9.742,7.431
		c-11.219,10.563-24.157,19.039-35.449,29.521c-7.046,6.385-5.749,14.93-6.353,23.124c-0.764,10.267,3.012,21.229-4.305,30.602
		c-15.369,3.043-30.816,4.915-46.499,3.099c-8.589-9.635-4.218-21.378-4.806-32.191c-0.525-9.62-0.799-18.781-9.968-24.648
		c-3.952-3.254-8.453-5.984-10.979-10.717c-3.639-9.884,3.287-12.38,10.352-14.797c5.86-0.141,10.208,4.454,15.651,5.034
		c-4.438-1.665-9.428-2.867-11.625-8.124c-0.775-3.828-1.174-8.526,3.447-9.161c5.891-0.808-0.149-4.365,1.97-5.584
		c0.282-1.275,0.819-2.417,1.571-3.464c7.696-3.074,14.335-7.183,15.929-16.263c1.54-2.318,3.623-3.768,6.458-3.975
		c4.908,0.566,8.006,3.936,11.187,7.194c3.23,3.51,5.01,8.223,9.113,11.014c3.89,2.445,7.751,2.233,11.578-0.077
		c7.101-2.932,6.416-11.227,10.986-15.911c9.541-3.645,9.671,3.77,11.206,9.526c-1.577,17.727-12.044,28.827-32.771,34.765
		c11.938-3.017,23.642-10.238,43.198-26.729c-2.738-3.129-7.506-3.979-9.338-8.135c-1.997-6.224-0.83-11.754,3.541-16.61
		c1.221-0.955,2.607-1.574,4.128-1.896C277.23,70.758,287.461,68.259,293.621,77.053z"/>
	<path fill-rule="evenodd" clip-rule="evenodd" fill="#F26522" d="M288.543,104.407c3.492-3.952,6.982-7.893,10.468-11.841
		c3.722-1.288,4.711,1.497,5.903,3.969c0.96,0.929,1.906,1.86,2.858,2.793c4.893,0.595,7.638,3.141,7.574,8.268
		c1.344,1.618,2.679,3.228,4.016,4.845c21.463,20.907,29.907,46.652,28.338,76.133c-0.419,6.87-0.848,13.732-1.265,20.606
		c-21.644,6.599-43.1,4.065-64.513-1.167c-2.672-1.272-4.58-3.518-4.752-6.334c-1.344-20.931-10.199-38.886-21.658-55.868
		c-1.998-9.38,5.127-14.123,10.301-19.725c4.05-4.387,8.188-8.695,12.332-12.986C281.723,110.342,284.011,106.032,288.543,104.407z"
		/>
	<path fill-rule="evenodd" clip-rule="evenodd" fill="#F26522" d="M74.607,219.603c0.016-9.401,0.027-18.801,0.043-28.197
		c4.32-4.477,10.054-4.371,15.487-4.14c16.5,0.685,32.935,2.247,49.315,4.348c3.274,1.323,5.362,3.979,5.498,7.308
		c0.772,18.918,11.52,33.606,20.43,49.076c0.509,10.239-12.404,13.342-12.396,23.345c-8.526,11.183-15.812,23.469-28.063,31.334
		c-13.305-0.228-16.998-12.988-24.761-20.063c-4.41-4.018-9.411-10.289-9.215-17.906c-3.396-6.913-6.781-13.819-10.168-20.727
		c-2.264-3.075-4.406-6.189-3.302-10.337c-0.015-3.083,0.501-6.287-1.848-8.88C72.645,223.573,73.126,221.682,74.607,219.603z"/>
	<path fill-rule="evenodd" clip-rule="evenodd" fill="#D12029" d="M140.709,194.222c-22.023-0.947-44.043-1.88-66.059-2.816
		l-0.771-0.572c-1.144-9.427-5.605-19.25,3.152-27.554c0.208-1.613,0.42-3.219,0.631-4.825c1.994-4.837,0.604-10.873,5.221-14.777
		c1.073-1.61,2.15-3.217,3.224-4.83c3.548-11.249,4.273-24.4,18.882-28.294c19.04,12.682,38.787,24.604,50.216,45.692
		C150.11,168.802,149.925,183.238,140.709,194.222z"/>
	<path fill-rule="evenodd" clip-rule="evenodd" fill="#D12029" d="M279.951,205.96c22.162,1.076,44.322,2.143,66.484,3.22
		l0.605-0.075c1.168,20.465-2.157,39.599-16.375,55.523c-0.99,1.936-1.998,3.89-2.993,5.829
		c-4.024,5.918-5.467,14.248-14.467,15.529c-20.133-11.37-37.922-25.494-51.788-44.22
		C267.933,230.013,270.081,215.99,279.951,205.96z"/>
	<path fill-rule="evenodd" clip-rule="evenodd" fill="#903C1F" d="M242.814,22.951c2.883,2.789,5.772,5.57,8.656,8.351
		c-5.782,11.37-14.445,20.152-24.652,27.582c-12.42,5.941-24.061-0.117-35.956-2.351c-3.125-1.175-6.016-0.885-8.578,1.371
		c-3.451,2.358-5.683,5.664-7.292,9.448c-0.847,1.645-1.931,3.093-3.157,4.462c-1.253,1.403-2.64,2.639-4.152,3.75
		c-6.263,2.3-6.971,10.376-13.203,12.733c-1.414-0.149-2.664-0.65-3.764-1.558c-4.967-5.911-6.298-12.957-6.483-20.391
		c0.232-7.65,5.296-13.737,6.757-20.999c3.678-1.828,2.275-5.22,2.5-8.118c1.468-7.708,8.961-9.808,13.606-14.555
		c3.807-2.014,7.606-4.027,11.405-6.039c12.843-6.515,26.179-3.89,39.465-2.151l-0.122-0.066c7.277,3.553,17.461-1.72,22.854,7.536
		C241.204,22.724,241.906,23.062,242.814,22.951z"/>
	<path fill-rule="evenodd" clip-rule="evenodd" fill="#F26522" d="M262.774,242.569c17.022,14.233,34.035,28.475,51.058,42.717
		c0.067,2.255-1.124,3.79-2.879,5.005c-1.127,1.34-2.248,2.675-3.372,4.018c-3.769,6.471-8.511,11.72-16.309,13.212
		c-4.972,3.363-9.938,6.736-14.904,10.109c-2.769,4.5-6.622,6.282-11.808,4.734c-11.28-14.821-12.601-32.563-14.653-50.075
		c8.182-7.073,3.818-15.992,3.51-24.338C255.422,244.207,257.51,240.615,262.774,242.569z"/>
	<path fill-rule="evenodd" clip-rule="evenodd" fill="#F7BC7A" d="M251.713,271.216c4.441,16.765,8.883,33.52,13.329,50.271
		c5.972,4.089,5.439,11.245,7.205,16.979c2.429,7.856,5.41,15.251,9.586,22.247c4.223,4.154,9.549,2.922,14.613,2.973
		c4.241-0.17,7.614,1.39,7.711,5.949c0.099,4.547-1.652,8.24-7.421,7.371c-2.801-0.031-5.598-0.063-8.399-0.095
		c-4.828,2.656-9.877,0.274-14.808,0.459c-16.278,0.626-19.541-3.137-19.024-19.972c0.369-4.12,0.177-8.115-2.651-11.491
		c-1.77-1.599-1.605-3.393-0.536-5.271c-1.069-4.042-2.127-8.081-3.196-12.115c-10.99-16.05-14.586-34.471-17.107-53.26
		C237.01,269.281,243.668,266.681,251.713,271.216z"/>
	<path fill-rule="evenodd" clip-rule="evenodd" fill="#F26522" d="M231.898,276.011c6.956,17.022,11.511,34.796,16.231,52.511
		c-15.304,2.519-30.512,6.087-46.198,3.654c-2.699-1.551-4.199-4.281-3.843-6.987c2.456-18.878-0.917-38.18,4.082-56.854
		c3.454-4.388,8.063-4.566,12.991-3.525C220.454,268.905,225.26,273.825,231.898,276.011z"/>
	<path fill-rule="evenodd" clip-rule="evenodd" fill="#F6BB7D" d="M184.436,330.712c-5.707,12.364-7.438,25.074-3.283,38.281
		l-0.035,0.047c0.098,9.521-5.883,11.602-13.818,11.292c-3.706,1.233-6.376,5.651-11.143,3.606
		c-7.328,2.457-14.589,5.989-22.337,1.277l0.126,0.004c0.023-1.746,0.046-3.486,0.066-5.225c0.278-1.39,0.732-3.099,1.907-3.506
		c14.191-5.06,21.198-16.387,26.227-29.524c2.898-7.457,1.981-15.039,0.65-22.622c-4.496-16.02-0.854-31.322,4.073-46.515
		c6.337-3.995,12.851-3.878,19.481-0.8c4.171,3.42,3.929,8.076,3.279,12.682C187.698,303.349,186.417,317.082,184.436,330.712z"/>
	<path fill-rule="evenodd" clip-rule="evenodd" fill="#F26522" d="M154.183,154.89c-16.541-14.444-33.077-28.89-49.605-43.325
		c-1.151-3.663,0.258-6.014,3.744-7.294c1.845-1.863,3.698-3.729,5.554-5.602c2.209-3.32,4.089-7.112,9.13-6.399
		c11.609,15.008,30.092,22.482,41.458,37.769c2.664,2.659,5.335,5.323,8.002,7.979C169.223,146.743,164.038,153.347,154.183,154.89z
		"/>
	<path fill-rule="evenodd" clip-rule="evenodd" fill="#D02329" d="M167.292,278.459c-0.234,15.416-1.41,30.742-4.504,45.884
		c-4.861,1.7-8.225-1.512-11.915-3.65c-9.627-5.076-21.788-6.518-26.587-18.519c8.719-10.716,17.43-21.437,26.148-32.144
		c3.991-2.864,3.29-11.85,11.695-8.981C165.867,266.254,166.532,272.368,167.292,278.459z"/>
	<path fill-rule="evenodd" clip-rule="evenodd" fill="#F7BD7C" d="M164.464,130.038c-15.776-10.719-32.771-20.065-42.684-37.454
		c-3.137-8.841,1.339-13.726,8.852-17.023c1.003-0.735,2.009-1.465,3.008-2.209c4.05-3.243,7.316-8.961,13.853-4.402
		c1.868,6.118,3.744,12.236,5.612,18.354c-5.444,8.988,3.502,11.702,7.356,16.48c3.987,4.951,12.447,6.153,12.236,14.649
		C169.626,122.075,161.487,122.122,164.464,130.038z"/>
	<path fill-rule="evenodd" clip-rule="evenodd" fill="#943C21" d="M225.636,56.871c9.635-7.494,15.239-19.059,25.835-25.569
		c4.95,2.119,4.88,8.077,8.558,11.179c0.216,0.932,0.442,1.855,0.665,2.788c3.349,3.859,3.687,8.625,4.004,13.396
		c1.753,3.931,2.01,7.923,0.466,11.98c-0.571,5.495-1.152,10.986-1.732,16.478c-1.417,1.646-3.035,1.755-4.82,0.643
		c-3.533-2.483-0.228-12.329-9.396-8.72c-3.725-2.313-5.279-6.618-8.613-9.271c-1.555-1.538-2.8-3.402-4.668-4.586
		c-2.891-1.104-5.166,1.034-7.767,1.489c-1.943,0.227-3.698-0.188-5.225-1.472C220.975,61.493,222.588,58.954,225.636,56.871z"/>
	<path fill-rule="evenodd" clip-rule="evenodd" fill="#D0242C" d="M184.436,330.712c-7.262-13.67,1.28-26.951,1.088-40.468
		c-0.051-3.632,1.214-7.285,1.868-10.924c4.242-4.853,8.958-9.208,14.053-13.148c1.355-0.188,2.641,0.027,3.858,0.653
		c-1.128,21.777-2.248,43.566-3.372,65.351c-0.654-0.118-1.081,0.145-1.273,0.775c-4.566,0.282-9.235,1.825-13.583-0.952
		C186.19,331.572,185.313,331.146,184.436,330.712z"/>
	<path fill-rule="evenodd" clip-rule="evenodd" fill="#8BD3EF" d="M240.319,67.738c6.635,0.879,9.333,4.845,8.895,11.308
		c-0.838,6.564-1.931,12.997-8.797,16.313c-5.562,2.98-11.107,3.02-16.654-0.026c-4.605-2.32-5.42-7.458-8.236-11.108
		c-2.64-3.25-2.808-6.912-1.837-10.787c3.356-6.909,10.701-4.794,16.094-7.097C233.622,64.366,237.123,64.876,240.319,67.738z"/>
	<path fill-rule="evenodd" clip-rule="evenodd" fill="#8BD5F3" d="M167.395,72.659c0.669-0.717,1.354-1.434,2.028-2.15
		c9.756-4.687,19.552-5.602,29.431-0.321c3.102,2.271,4.378,5.153,2.973,8.938c0.078,11.671-6.435,16.756-17.375,17.44
		c-10.238,4.125-14.852-2.671-19.27-9.893C163.368,81.6,164.833,77.045,167.395,72.659z"/>
	<path fill-rule="evenodd" clip-rule="evenodd" fill="#D12E29" d="M258.61,87.766c1.609-0.216,3.212-0.432,4.82-0.643
		c15.242,7.152,15.386,7.425,2.107,16.349c-13.975,9.38-26.763,21.769-49.797,20.499C236.869,115.981,253.772,108.422,258.61,87.766
		z"/>
	<path fill-rule="evenodd" clip-rule="evenodd" fill="#F26522" d="M172.698,118.434c-7.56-8.038-18.66-12.296-23.916-22.883
		c-2.631-5.301-3.533-8.843,4.324-8.247l0.392,0.237c8.762,1.129,10.281,9.781,15.377,14.73c3.278,3.494,6.65,6.91,9.686,10.631
		c5.753,6.017,14.386,5.955,24.092,11.275C189.46,128.516,181.459,121.206,172.698,118.434z"/>
	<path fill-rule="evenodd" clip-rule="evenodd" fill="#4460A7" d="M234.796,194.021c2.214,1.328,2.73,3.494,2.853,5.859
		c-17.073,8.465-34.776,8.17-52.723,3.623c-1.253-0.313-1.199-2.232-0.72-3.604c0.963-1.088,1.931-2.177,2.897-3.273
		C203,195.761,218.891,194.892,234.796,194.021z"/>
	<path fill-rule="evenodd" clip-rule="evenodd" fill="#E8AB70" d="M232.431,103.987c-13.716,6.902-27.483,12.706-43.299,1.49
		C204.238,99.232,218.503,104.303,232.431,103.987z"/>
	<path fill-rule="evenodd" clip-rule="evenodd" fill="#D13033" d="M255.638,143.155c-3.299-1.919-6.584-3.842-9.874-5.758
		c11.374-9.338,22.749-18.667,34.13-28.005c1.305,1.124,1.388,2.335,0.258,3.643C271.982,123.078,263.803,133.12,255.638,143.155z"
		/>
	<path fill-rule="evenodd" clip-rule="evenodd" fill="#F8C28B" d="M178.561,112.902c-5.409-0.662-8.645-4.229-11.366-8.487
		c0.263-4.148,2.166-6.929,6.447-7.728c3.47,0.926,7.309-0.213,10.595,1.825C189.21,106.019,175.298,106.071,178.561,112.902z"/>
	<path fill-rule="evenodd" clip-rule="evenodd" fill="#D38479" d="M184.236,98.513c-3.698,0.038-7.398,0.066-11.108,0.098
		c-5.459-2.432-9.679-5.433-5.499-12.211c4.304,5.54,9.231,10.045,16.822,10.166C184.346,97.204,184.283,97.862,184.236,98.513z"/>
	<path fill-rule="evenodd" clip-rule="evenodd" fill="#E15E52" d="M215.671,73.94c-0.046,3.426-0.09,6.854-0.145,10.284
		c-2.867-2.832-5.749-5.656-8.628-8.476c-0.792-2.138,0.438-3.423,1.923-4.614c2.236-1.253,4.5-2.214,7.019-0.721
		C216.396,71.62,216.314,72.796,215.671,73.94z"/>
	<path fill-rule="evenodd" clip-rule="evenodd" fill="#D04E4C" d="M209.707,73.313c-0.938,0.818-1.877,1.637-2.817,2.445
		c-1.684,1.111-3.376,2.239-5.063,3.363c-1.07-2.083-2.135-4.172-3.204-6.255c-1.03-1.503-0.775-2.742,0.764-3.714
		C203.87,67.955,208.613,66.113,209.707,73.313z"/>
	<path fill-rule="evenodd" clip-rule="evenodd" fill="#E5B96F" d="M225.177,138.393c0.921,4.02,2.66,7.975-0.908,12.385
		C221.225,145.826,224.053,142.028,225.177,138.393z"/>
	<path fill-rule="evenodd" clip-rule="evenodd" fill="#F07F66" d="M223.763,95.333c5.555,0.016,11.108,0.016,16.654,0.026
		C234.855,100.472,229.302,100.446,223.763,95.333z"/>
	<path fill-rule="evenodd" clip-rule="evenodd" fill="#DE7864" d="M280.151,113.035c-0.082-1.215-0.168-2.42-0.258-3.643
		c2.609-2.138,2.942-8.225,8.649-4.985C285.748,107.283,282.953,110.162,280.151,113.035z"/>
	<path fill-rule="evenodd" clip-rule="evenodd" fill="#D02329" d="M164.723,250.478c0.74,0.208,1.472,0.436,2.189,0.678
		c1.833,5.433-0.317,8.836-5.44,10.739c-5.656,0.031-6.475,6.623-11.038,8.136C150.748,260.258,158.691,256.063,164.723,250.478z"/>
	<path fill-rule="evenodd" clip-rule="evenodd" fill="#F4B479" d="M209.707,73.313c-2.946-4.269-7.376-2.584-11.328-2.844
		c-8.202-3.277-17.195,0.739-25.373-2.737c0.749-5.143-0.944-12.145,8.284-10.739c3.234-0.178,5.585-2.535,8.506-3.468
		c12.091-0.392,23.36,7.975,35.838,3.347c-0.466,2.422-0.939,4.848-1.398,7.275c0.686,1.191,0.795,2.417,0.263,3.69
		c-2.84,1.849-6.35,1.284-9.322,2.632C213.353,71.417,211.527,72.369,209.707,73.313z"/>
	<path fill-rule="evenodd" clip-rule="evenodd" fill="#F0B478" d="M167.629,86.399c-1.265,5.467,3.427,8.252,5.499,12.211
		c-1.966,1.939-3.948,3.873-5.926,5.805c-4.571-5.62-9.146-11.253-13.705-16.881c5.476-4.156,4.078-14.745,13.889-14.861
		C167.473,77.236,167.546,81.813,167.629,86.399z"/>
	<path fill-rule="evenodd" clip-rule="evenodd" fill="#BA838C" d="M173.007,67.731c8.433,1.167,17.394-2.573,25.373,2.737
		c0.184,0.787,0.258,1.59,0.243,2.397c-9.475-3.878-19.435-1.841-29.184-2.357C170.621,69.583,171.82,68.65,173.007,67.731z"/>
	<path fill-rule="evenodd" clip-rule="evenodd" fill="#8E3D1E" d="M189.797,53.524c-1.335,4.843-1.778,11.889-8.506,3.468
		C182.301,51.364,184.557,48.787,189.797,53.524z"/>
	<path fill-rule="evenodd" clip-rule="evenodd" fill="#1F98D3" d="M161.472,261.895c1.817-3.571,3.634-7.151,5.448-10.739
		c2.655-18.131,12.494-33.837,17.285-51.255c17.82,6.212,35.634,1.183,53.443-0.02c5.891,16.255,11.784,32.521,17.676,48.775
		c1.151,3.517,1.966,7.183,3.517,10.513c3.6,7.724,0.607,11.201-7.128,12.047c-6.604,1.605-13.211,3.192-19.814,4.795
		c-5.801-0.729-15.286,5.459-14.426-7.721c-4.66-7.969-10.254-4.868-15.882-1.343c-2.084,7.167-5.025,13.348-14.198,12.373
		c-6.697-0.29-13.395-0.572-20.093-0.854C158.162,275.47,164.175,267.144,161.472,261.895z"/>
	<path fill-rule="evenodd" clip-rule="evenodd" fill="#EB9463" d="M223.735,67.595c0.169-1.144,0.325-2.296,0.494-3.448
		c1.414,0.197,2.815,0.404,4.227,0.611c2.944-1.299,5.851-2.686,9.192-2.571c0.885,1.852,1.778,3.701,2.671,5.552
		c-3.541,0.067-7.066,0.146-10.604,0.224C227.641,69.22,225.628,69.427,223.735,67.595z"/>
	<path fill-rule="evenodd" clip-rule="evenodd" fill="#F8AE84" d="M237.648,62.187c-2.335,3.465-5.859,2.653-9.185,2.571
		C231.271,63.034,232.576,55.852,237.648,62.187z"/>
	<path fill-rule="evenodd" clip-rule="evenodd" fill="#CF7B75" d="M223.735,67.595c1.998,0.121,3.979,0.242,5.98,0.36
		c-4.684,1.997-9.359,3.987-14.045,5.985c-0.16-1.16-0.329-2.32-0.493-3.472C217.344,67.456,220.653,67.854,223.735,67.595z"/>
</g>
</svg>
