<?xml version="1.0" encoding="utf-8"?>
<!-- Generator: Adobe Illustrator 16.0.0, SVG Export Plug-In . SVG Version: 6.00 Build 0)  -->
<!DOCTYPE svg PUBLIC "-//W3C//DTD SVG 1.1//EN" "http://www.w3.org/Graphics/SVG/1.1/DTD/svg11.dtd">
<svg version="1.1" id="Layer_1" xmlns="http://www.w3.org/2000/svg" xmlns:xlink="http://www.w3.org/1999/xlink" x="0px" y="0px"
	 width="400px" height="400px" viewBox="0 0 400 400" enable-background="new 0 0 400 400" xml:space="preserve">
<g>
	<path fill-rule="evenodd" clip-rule="evenodd" fill="#F5865A" d="M374.915,169.996c3.766,8.086,7.532,16.168,11.284,24.253
		c0.98,2.103,2.582,4.208,0.1,6.366c-3.086,2.791-6.947,2.327-10.572,2.245c-9.234-0.218-18.514,0.97-27.687-0.833
		c-1.248-0.52-2.322-1.23-2.644-2.66c-0.008-0.494,0.078-0.97,0.252-1.425c0.247-0.646,0.992-1.006,1.036-1.774
		c-0.247,0.729-0.793,1.24-1.331,1.815c-1.66,2.189-3.68,3.749-6.387,4.321c-11.372,1.322-22.776,0.564-34.155,0.612
		c-29.155,0.13-58.31,0.013-87.447,0.099c-6.109-2.855-4.901-10.292-8.99-14.426c8.003-11.522,17.7-21.679,26.735-32.364
		c26.044-30.785,51.579-61.994,77.77-92.656c2.133-2.496,2.896-5.643,4.411-8.424c5.001-1.157,3.97,4.385,6.558,5.907
		c4.445,2.908,5.629,7.981,8.112,12.198c3.292,6.687,5.845,13.758,10.342,19.83c2.423,8.479,6.357,16.344,10.201,24.214
		c6.882,14.101,13.343,28.4,19.753,42.718c1.324,2.958,2.602,5.841,1.711,9.169c-3.116,3.029-5.572,6.76-9.481,8.952
		c-0.94,1.556-2.157,2.83-3.748,3.722c-0.729,0.769,0.116-0.307-0.591,0.487c-0.336,0.384-0.666,0.767-0.926,1.217
		c0.45-0.126,0.493-0.632,0.836-0.907c2.006-1.329,3.705-2.915,5.018-4.904c3.666-1.547,5.227-5.344,8.173-7.661
		C373.775,169.455,374.33,169.397,374.915,169.996z"/>
	<path fill-rule="evenodd" clip-rule="evenodd" fill="#F26522" d="M12.381,200.287c4.468-14.925,13.213-28.05,18.031-42.826
		c14.018-30.806,28.041-61.608,42.067-92.409c0.763-1.682,1.616-3.319,2.422-4.975c4.196-2.28,5.504,1.721,7.264,3.723
		c20.47,23.282,41.145,46.388,61.511,69.762c13.234,15.192,26.932,29.969,40.261,45.067c2.903,3.284,6.483,6.434,6.6,11.453
		c-2.014,4.397-2.751,9.625-7.83,12.045c-3.372,1.014-6.834,0.881-10.274,0.885c-49.058,0.03-98.112,0.035-147.169-0.021
		C20.823,202.99,16.147,203.684,12.381,200.287z"/>
	<path fill-rule="evenodd" clip-rule="evenodd" fill="#F5865A" d="M189.658,189.201c-15.179-19.733-32.782-37.361-49.027-56.177
		c-20.427-23.655-41.362-46.878-62.044-70.321c-1.053-1.192-1.802-2.661-3.684-2.626c12.117-6.43,25.277-10.288,37.987-15.24
		c27.122-10.57,54.37-20.818,81.647-30.979c2.887-1.075,6.172-4.013,9.509-0.503c-1.473,53.368-0.305,106.751-0.625,160.125
		c-0.018,3.491,0.529,6.872,2.211,9.988c0.819,2.24-0.274,3.765-2.342,3.795C198.636,187.33,194.346,189.626,189.658,189.201z"/>
	<path fill-rule="evenodd" clip-rule="evenodd" fill="#F26522" d="M205.569,186.003c-3.669-1.707-5.087-4.203-5.07-8.606
		c0.2-52.432,0.108-104.866,0.148-157.299c0-2.69-1.131-6.214,3.397-6.742c33.313,12.021,66.623,24.037,99.942,36.04
		c0.733,0.264,1.53,0.352,2.297,0.521c3.856-0.75,6.97,0.429,9.29,3.618c0.572,0.537,1.145,1.074,1.716,1.612
		c3.667,4.793-1.013,7.44-3.163,10.071c-13.381,16.405-27.062,32.573-40.711,48.758c-18.772,22.265-37.564,44.507-56.477,66.651
		c-2.287,2.681-3.734,6.629-8.142,6.934C207.053,188.425,206.215,187.412,205.569,186.003z"/>
	<path fill-rule="evenodd" clip-rule="evenodd" fill="#F5865A" d="M12.381,200.287c57.429-0.026,114.859-0.057,172.289-0.087
		c3.237,3.723,5.091,8.217,7.085,12.637c-6.186,9.289-13.959,17.311-21.125,25.792c-24.353,28.808-48.573,57.728-72.774,86.661
		c-5.768,6.895-10.907,14.453-18.16,20.037c-15.601-30.207-29.113-61.408-43.559-92.16c-7.216-15.362-14.301-30.789-21.377-46.217
		C13.781,204.814,13.166,202.513,12.381,200.287z"/>
	<path fill-rule="evenodd" clip-rule="evenodd" fill="#F26522" d="M79.696,345.326c4.602-9.75,12.87-16.652,19.551-24.746
		c27.378-33.16,55.146-66.002,82.88-98.871c2.695-3.197,5.114-6.863,9.151-8.735c4.962-0.991,8.776,0.528,11.198,5.122
		c1.104,3.359,0.966,6.838,0.97,10.287c0.026,48.708,0.043,97.414-0.029,146.121c-0.008,4.42,0.871,9.18-2.969,12.773
		c-2.639,2.254-4.861,0.268-7.306-0.582c-10.678-3.721-20.874-8.916-32.188-10.754c-7.696-3.32-15.042-7.74-23.843-7.666
		c-11.457-4.004-22.771-8.389-34.375-11.951c-3.588-1.102-6.705-2.994-9.404-5.594C88.787,348.928,84.246,347.129,79.696,345.326z"
		/>
	<path fill-rule="evenodd" clip-rule="evenodd" fill="#F5865A" d="M200.447,387.277c0.091-56.953,0.183-113.905,0.277-170.854
		c2.574-4.169,6.951-5.386,11.197-6.825c16.636,21.057,34.926,40.678,52.789,60.666c2.132,2.385,4.168,4.829,6.102,7.363
		c17.115,19.049,34.186,38.133,50.872,57.555c1.534,1.785,3.458,3.346,3.585,5.977c-27.054,10.48-54.103,20.969-81.15,31.445
		c-11.311,4.387-22.633,8.736-33.947,13.113C207.039,386.93,203.957,388.43,200.447,387.277z"/>
	<path fill-rule="evenodd" clip-rule="evenodd" fill="#F26522" d="M325.27,341.158c-15.497-17.295-31.006-34.576-46.48-51.891
		c-3.154-3.538-6.166-7.199-9.242-10.8c-1.625-1.898-0.725-3.818,0.75-4.819c9.633-6.529,13.236-18.151,22.355-25.426
		c9.021-7.195,16.627-16.234,24.828-24.484c6.727-6.76,12.977-13.996,21.846-18.135c1.889-0.879,2.353-2.743,2.955-4.494
		c0.963-1.525,2.197-2.015,3.826-1.015c13.395,0.175,26.789,0.348,40.188,0.521c1.359,5.474-1.742,9.82-3.763,14.369
		c-5.659,12.74-11.482,25.394-17.242,38.08c-1.724,1.801-2.057,4.287-3.167,6.389l0.025,0.029c-1.221,2.051-1.523,4.547-3.132,6.41
		C348.551,291.33,336.973,316.271,325.27,341.158z"/>
	<path fill-rule="evenodd" clip-rule="evenodd" fill="#F26522" d="M342.926,201.799c-0.094,1.381,2.87,2.553-0.38,4.221
		c-18.235,9.381-29.667,26.428-44.296,39.879c-5.243,4.822-11.985,9.238-14.655,15.332c-3.276,7.471-10.732,10.48-14.048,17.237
		c-18.027-20.284-36.046-40.573-54.09-60.835c-1.936-2.18-4.271-4.104-3.244-7.523c-0.305-3.18,0.546-5.923,3.072-8.025
		c2.252-1.814,4.922-1.642,7.578-1.642c39.472,0.03,78.939,0.052,118.413,0.069C342.035,200.676,342.586,201.105,342.926,201.799z"
		/>
	<path fill-rule="evenodd" clip-rule="evenodd" fill="#D5E3D2" d="M215.285,202.084c-0.026,3.055-1.195,5.677-3.072,8.025
		c-3.099,3.437-7.371,4.736-11.488,6.313c-3.111-1.256-6.747-1.075-9.447-3.449c-4.015-3.319-6.408-7.479-6.607-12.774
		c-0.048-4.437,2.283-7.8,4.987-10.999c4.55-4.826,10.327-3.539,15.912-3.197c1.074,0.519,2.155,1.036,3.229,1.556
		C213.955,191.06,215.822,196.036,215.285,202.084z"/>
</g>
</svg>
