<?xml version="1.0" encoding="utf-8"?>
<!-- Generator: Adobe Illustrator 16.0.0, SVG Export Plug-In . SVG Version: 6.00 Build 0)  -->
<!DOCTYPE svg PUBLIC "-//W3C//DTD SVG 1.1//EN" "http://www.w3.org/Graphics/SVG/1.1/DTD/svg11.dtd">
<svg version="1.1" id="Layer_1" xmlns="http://www.w3.org/2000/svg" xmlns:xlink="http://www.w3.org/1999/xlink" x="0px" y="0px"
	 width="400px" height="400px" viewBox="0 0 400 400" enable-background="new 0 0 400 400" xml:space="preserve">
<g>
	<path fill-rule="evenodd" clip-rule="evenodd" fill="#DE97A0" d="M380.99,170.427c3.856,8.281,7.713,16.557,11.556,24.837
		c1.004,2.152,2.646,4.31,0.104,6.52c-3.161,2.857-7.115,2.383-10.828,2.299c-9.457-0.224-18.958,0.992-28.352-0.853
		c-1.278-0.532-2.379-1.261-2.707-2.725c-0.009-0.506,0.079-0.993,0.258-1.46c0.253-0.662,1.017-1.029,1.061-1.816
		c-0.253,0.747-0.812,1.271-1.363,1.859c-1.699,2.242-3.768,3.84-6.54,4.426c-11.646,1.354-23.324,0.577-34.978,0.627
		c-29.855,0.132-59.712,0.014-89.552,0.101c-6.256-2.924-5.018-10.539-9.205-14.773c8.193-11.799,18.125-22.201,27.378-33.143
		c26.67-31.525,52.82-63.485,79.641-94.885c2.185-2.556,2.966-5.778,4.518-8.627c5.122-1.184,4.065,4.491,6.715,6.049
		c4.553,2.978,5.764,8.174,8.308,12.492c3.372,6.847,5.985,14.089,10.591,20.307c2.482,8.684,6.51,16.738,10.447,24.797
		c7.047,14.439,13.663,29.083,20.227,43.746c1.357,3.03,2.666,5.981,1.754,9.39c-3.192,3.102-5.708,6.922-9.711,9.167
		c-0.962,1.594-2.209,2.898-3.839,3.812c-0.745,0.787,0.12-0.314-0.603,0.499c-0.346,0.394-0.684,0.785-0.949,1.246
		c0.461-0.129,0.505-0.648,0.855-0.929c2.055-1.361,3.795-2.985,5.14-5.022c3.754-1.583,5.352-5.472,8.369-7.845
		C379.824,169.872,380.392,169.814,380.99,170.427z"/>
	<path fill-rule="evenodd" clip-rule="evenodd" fill="#ED1C24" d="M9.734,201.446c4.576-15.284,13.531-28.725,18.465-43.856
		c14.355-31.547,28.715-63.09,43.079-94.632c0.782-1.722,1.655-3.399,2.48-5.094c4.297-2.334,5.637,1.762,7.438,3.812
		c20.963,23.843,42.135,47.504,62.991,71.44c13.552,15.558,27.58,30.69,41.23,46.151c2.972,3.363,6.639,6.589,6.758,11.729
		c-2.063,4.504-2.817,9.855-8.018,12.336c-3.453,1.037-6.999,0.9-10.522,0.904c-50.238,0.031-100.472,0.036-150.709-0.021
		C18.379,204.215,13.59,204.924,9.734,201.446z"/>
	<path fill-rule="evenodd" clip-rule="evenodd" fill="#DE97A0" d="M191.276,190.093c-15.544-20.208-33.571-38.26-50.207-57.528
		C120.15,108.341,98.712,84.56,77.532,60.552c-1.079-1.221-1.846-2.725-3.773-2.689c12.408-6.585,25.885-10.535,38.901-15.607
		c27.774-10.824,55.678-21.318,83.611-31.724c2.957-1.101,6.321-4.109,9.737-0.515c-1.508,54.653-0.312,109.32-0.639,163.979
		c-0.019,3.575,0.542,7.037,2.263,10.228c0.84,2.294-0.28,3.856-2.396,3.886C200.471,188.177,196.077,190.53,191.276,190.093z"/>
	<path fill-rule="evenodd" clip-rule="evenodd" fill="#ED1C24" d="M207.57,186.819c-3.757-1.747-5.21-4.303-5.191-8.813
		c0.205-53.694,0.11-107.389,0.151-161.083c0-2.755-1.159-6.363,3.479-6.905c34.115,12.311,68.227,24.616,102.348,36.908
		c0.751,0.27,1.567,0.359,2.354,0.533c3.948-0.768,7.136,0.439,9.513,3.705c0.587,0.55,1.171,1.1,1.757,1.65
		c3.755,4.908-1.038,7.62-3.239,10.313c-13.703,16.801-27.713,33.357-41.69,49.932c-19.224,22.801-38.469,45.579-57.835,68.255
		c-2.344,2.746-3.824,6.789-8.338,7.1C209.089,189.299,208.232,188.262,207.57,186.819z"/>
	<path fill-rule="evenodd" clip-rule="evenodd" fill="#DE97A0" d="M9.734,201.446c58.81-0.026,117.623-0.058,176.435-0.089
		c3.314,3.812,5.214,8.413,7.256,12.939c-6.334,9.514-14.295,17.729-21.634,26.412c-24.939,29.502-49.742,59.117-74.525,88.746
		c-5.906,7.061-11.169,14.801-18.597,20.52c-15.977-30.934-29.813-62.885-44.607-94.377c-7.389-15.732-14.645-31.529-21.892-47.328
		C11.168,206.084,10.538,203.727,9.734,201.446z"/>
	<path fill-rule="evenodd" clip-rule="evenodd" fill="#ED1C24" d="M78.668,349.975c4.712-9.984,13.179-17.051,20.021-25.342
		c28.038-33.957,56.474-67.588,84.875-101.249c2.759-3.274,5.236-7.028,9.371-8.945c5.082-1.017,8.987,0.542,11.468,5.245
		c1.131,3.441,0.988,7.003,0.993,10.535c0.026,49.881,0.044,99.758-0.03,149.635c-0.009,4.527,0.892,9.404-3.039,13.082
		c-2.703,2.307-4.979,0.275-7.482-0.596c-10.935-3.811-21.376-9.133-32.962-11.014c-7.881-3.398-15.404-7.924-24.416-7.848
		c-11.733-4.104-23.319-8.594-35.203-12.238c-3.675-1.129-6.866-3.068-9.631-5.73C87.978,353.662,83.328,351.822,78.668,349.975z"/>
	<path fill-rule="evenodd" clip-rule="evenodd" fill="#DE97A0" d="M202.326,392.936c0.092-58.324,0.186-116.646,0.283-174.965
		c2.637-4.27,7.119-5.517,11.467-6.99c17.035,21.563,35.767,41.656,54.059,62.127c2.183,2.441,4.269,4.943,6.248,7.541
		c17.527,19.508,35.008,39.051,52.098,58.939c1.57,1.828,3.541,3.424,3.67,6.119c-27.705,10.734-55.403,21.473-83.103,32.201
		c-11.582,4.494-23.178,8.949-34.765,13.43C209.076,392.582,205.92,394.115,202.326,392.936z"/>
	<path fill-rule="evenodd" clip-rule="evenodd" fill="#ED1C24" d="M330.15,345.707c-15.869-17.711-31.752-35.408-47.598-53.139
		c-3.23-3.623-6.315-7.373-9.465-11.059c-1.665-1.945-0.742-3.912,0.768-4.938c9.865-6.686,13.555-18.588,22.893-26.037
		c9.24-7.367,17.027-16.625,25.428-25.074c6.887-6.92,13.286-14.332,22.37-18.57c1.934-0.9,2.409-2.809,3.025-4.603
		c0.986-1.561,2.251-2.063,3.918-1.038c13.717,0.179,27.435,0.355,41.155,0.533c1.393,5.605-1.784,10.055-3.853,14.715
		c-5.796,13.046-11.76,26.004-17.657,38.996c-1.766,1.844-2.107,4.391-3.244,6.543l0.026,0.029c-1.251,2.1-1.562,4.656-3.208,6.563
		C353.992,294.68,342.136,320.221,330.15,345.707z"/>
	<path fill-rule="evenodd" clip-rule="evenodd" fill="#ED1C24" d="M348.232,202.994c-0.097,1.416,2.938,2.614-0.39,4.322
		c-18.675,9.607-30.381,27.064-45.36,40.84c-5.371,4.938-12.274,9.459-15.009,15.699c-3.354,7.65-10.991,10.732-14.386,17.654
		c-18.462-20.773-36.914-41.551-55.391-62.3c-1.982-2.233-4.377-4.202-3.323-7.704c-0.312-3.256,0.56-6.065,3.146-8.218
		c2.308-1.859,5.04-1.683,7.762-1.683c40.421,0.031,80.839,0.053,121.261,0.07C347.319,201.846,347.884,202.285,348.232,202.994z"/>
	<path fill-rule="evenodd" clip-rule="evenodd" fill="#D5E3D2" d="M217.52,203.288c-0.026,3.126-1.225,5.812-3.146,8.218
		c-3.173,3.518-7.55,4.85-11.765,6.465c-3.186-1.287-6.91-1.102-9.675-3.532c-4.112-3.399-6.563-7.659-6.766-13.081
		c-0.049-4.545,2.337-7.988,5.107-11.264c4.659-4.941,10.575-3.624,16.294-3.274c1.1,0.532,2.206,1.061,3.307,1.594
		C216.157,191.997,218.07,197.093,217.52,203.288z"/>
</g>
</svg>
