<?xml version="1.0" encoding="utf-8"?>
<!-- Generator: Adobe Illustrator 16.0.0, SVG Export Plug-In . SVG Version: 6.00 Build 0)  -->
<!DOCTYPE svg PUBLIC "-//W3C//DTD SVG 1.1//EN" "http://www.w3.org/Graphics/SVG/1.1/DTD/svg11.dtd">
<svg version="1.1" id="Layer_1" xmlns="http://www.w3.org/2000/svg" xmlns:xlink="http://www.w3.org/1999/xlink" x="0px" y="0px"
	 width="400px" height="400px" viewBox="0 0 400 400" enable-background="new 0 0 400 400" xml:space="preserve">
<g>
	<path fill-rule="evenodd" clip-rule="evenodd" fill="#94D0A4" d="M387.429,174.461c3.897,8.371,7.799,16.736,11.684,25.106
		c1.012,2.176,2.672,4.355,0.103,6.589c-3.195,2.891-7.191,2.41-10.946,2.325c-9.558-0.225-19.162,1.004-28.659-0.862
		c-1.291-0.537-2.402-1.272-2.735-2.754c-0.007-0.511,0.08-1.004,0.261-1.476c0.256-0.668,1.027-1.041,1.073-1.835
		c-0.257,0.754-0.82,1.283-1.377,1.879c-1.719,2.267-3.811,3.881-6.614,4.473c-11.77,1.368-23.576,0.584-35.354,0.633
		c-30.181,0.135-60.359,0.015-90.521,0.104c-6.325-2.956-5.075-10.654-9.307-14.934c8.282-11.927,18.322-22.441,27.675-33.502
		c26.959-31.866,53.393-64.172,80.504-95.913c2.207-2.583,2.997-5.84,4.565-8.72c5.178-1.197,4.108,4.54,6.786,6.114
		c4.603,3.01,5.827,8.263,8.399,12.628c3.407,6.92,6.049,14.241,10.706,20.526c2.508,8.777,6.58,16.919,10.559,25.065
		c7.123,14.597,13.813,29.398,20.446,44.221c1.371,3.063,2.695,6.045,1.772,9.491c-3.228,3.135-5.771,6.997-9.816,9.267
		c-0.972,1.61-2.233,2.929-3.88,3.853c-0.752,0.795,0.121-0.318-0.609,0.504c-0.35,0.397-0.689,0.793-0.96,1.26
		c0.466-0.13,0.512-0.655,0.866-0.938c2.076-1.376,3.835-3.018,5.195-5.076c3.795-1.602,5.409-5.532,8.459-7.931
		C386.252,173.901,386.825,173.843,387.429,174.461z"/>
	<path fill-rule="evenodd" clip-rule="evenodd" fill="#00A14B" d="M12.154,205.816c4.625-15.449,13.678-29.036,18.665-44.331
		c14.511-31.889,29.026-63.773,43.546-95.656c0.791-1.74,1.674-3.436,2.507-5.15c4.343-2.36,5.698,1.781,7.519,3.854
		c21.19,24.101,42.591,48.018,63.673,72.214c13.699,15.726,27.879,31.021,41.676,46.651c3.005,3.399,6.712,6.661,6.832,11.855
		c-2.085,4.553-2.848,9.963-8.105,12.47c-3.491,1.049-7.075,0.91-10.635,0.914c-50.783,0.032-101.56,0.036-152.342-0.022
		C20.892,208.615,16.052,209.332,12.154,205.816z"/>
	<path fill-rule="evenodd" clip-rule="evenodd" fill="#94D0A4" d="M195.661,194.342c-15.712-20.427-33.934-38.676-50.751-58.151
		c-21.145-24.488-42.815-48.527-64.225-72.793c-1.09-1.234-1.866-2.754-3.813-2.719c12.542-6.657,26.166-10.649,39.322-15.776
		c28.076-10.94,56.282-21.549,84.517-32.068c2.989-1.112,6.39-4.154,9.843-0.521c-1.525,55.245-0.313,110.504-0.646,165.754
		c-0.018,3.613,0.547,7.113,2.287,10.338c0.849,2.319-0.283,3.898-2.422,3.929C204.955,192.404,200.514,194.783,195.661,194.342z"/>
	<path fill-rule="evenodd" clip-rule="evenodd" fill="#00A14B" d="M212.132,191.031c-3.798-1.766-5.265-4.349-5.248-8.908
		c0.208-54.276,0.112-108.552,0.154-162.828c0-2.786-1.172-6.432,3.516-6.98c34.484,12.443,68.967,24.882,103.456,37.308
		c0.758,0.273,1.585,0.363,2.377,0.538c3.992-0.775,7.213,0.444,9.618,3.746c0.592,0.556,1.183,1.113,1.775,1.668
		c3.795,4.961-1.048,7.702-3.274,10.426c-13.852,16.982-28.014,33.718-42.143,50.472c-19.432,23.046-38.885,46.071-58.461,68.993
		c-2.368,2.776-3.866,6.863-8.428,7.178C213.668,193.539,212.801,192.49,212.132,191.031z"/>
	<path fill-rule="evenodd" clip-rule="evenodd" fill="#94D0A4" d="M12.154,205.816c59.447-0.027,118.896-0.058,178.345-0.09
		c3.351,3.853,5.271,8.504,7.335,13.081c-6.403,9.616-14.45,17.919-21.868,26.697c-25.209,29.82-50.28,59.758-75.333,89.708
		c-5.97,7.138-11.29,14.961-18.798,20.742c-16.15-31.271-30.136-63.566-45.09-95.401c-7.47-15.901-14.804-31.87-22.129-47.84
		C13.603,210.504,12.966,208.121,12.154,205.816z"/>
	<path fill-rule="evenodd" clip-rule="evenodd" fill="#00A14B" d="M81.834,355.955c4.764-10.093,13.322-17.238,20.238-25.618
		c28.34-34.322,57.084-68.318,85.793-102.344c2.789-3.311,5.293-7.105,9.473-9.042c5.135-1.028,9.084,0.547,11.591,5.302
		c1.145,3.477,1.001,7.077,1.004,10.648c0.027,50.42,0.046,100.838-0.03,151.256c-0.009,4.575,0.9,9.504-3.072,13.223
		c-2.733,2.333-5.032,0.277-7.563-0.602c-11.053-3.853-21.607-9.231-33.319-11.134c-7.967-3.435-15.571-8.01-24.681-7.934
		c-11.86-4.146-23.57-8.685-35.584-12.371c-3.714-1.14-6.94-3.1-9.734-5.791C91.245,359.682,86.544,357.82,81.834,355.955z"/>
	<path fill-rule="evenodd" clip-rule="evenodd" fill="#94D0A4" d="M206.831,399.38c0.093-58.955,0.188-117.909,0.286-176.859
		c2.665-4.315,7.196-5.575,11.591-7.065c17.221,21.796,36.155,42.107,54.645,62.799c2.207,2.469,4.313,4.999,6.315,7.622
		c17.719,19.719,35.387,39.474,52.661,59.578c1.588,1.848,3.58,3.463,3.71,6.187c-28.004,10.851-56.002,21.705-84.002,32.551
		c-11.708,4.539-23.429,9.044-35.14,13.574C213.653,399.021,210.464,400.573,206.831,399.38z"/>
	<path fill-rule="evenodd" clip-rule="evenodd" fill="#00A14B" d="M336.039,351.641c-16.042-17.903-32.096-35.791-48.114-53.716
		c-3.263-3.661-6.382-7.451-9.567-11.179c-1.681-1.965-0.748-3.951,0.777-4.988c9.972-6.76,13.701-18.79,23.142-26.321
		c9.339-7.447,17.212-16.805,25.701-25.345c6.964-6.996,13.431-14.487,22.614-18.771c1.954-0.911,2.435-2.84,3.058-4.653
		c0.997-1.578,2.275-2.084,3.96-1.049c13.865,0.18,27.732,0.358,41.602,0.537c1.407,5.667-1.805,10.166-3.896,14.876
		c-5.857,13.188-11.887,26.285-17.849,39.419c-1.783,1.861-2.129,4.437-3.278,6.611l0.027,0.03
		c-1.266,2.124-1.579,4.707-3.242,6.637C360.14,300.06,348.154,325.88,336.039,351.641z"/>
	<path fill-rule="evenodd" clip-rule="evenodd" fill="#00A14B" d="M354.316,207.382c-0.098,1.431,2.972,2.642-0.394,4.37
		c-18.876,9.711-30.708,27.356-45.852,41.28c-5.429,4.991-12.407,9.563-15.17,15.871c-3.393,7.732-11.111,10.849-14.544,17.843
		c-18.66-20.998-37.313-41.999-55.989-62.972c-2.005-2.258-4.423-4.25-3.359-7.789c-0.313-3.292,0.566-6.131,3.18-8.308
		c2.333-1.879,5.096-1.7,7.847-1.7c40.858,0.032,81.715,0.054,122.573,0.072C353.395,206.22,353.965,206.664,354.316,207.382z"/>
	<path fill-rule="evenodd" clip-rule="evenodd" fill="#D5E3D2" d="M222.188,207.678c-0.026,3.163-1.236,5.876-3.18,8.308
		c-3.208,3.556-7.63,4.902-11.892,6.535c-3.22-1.3-6.984-1.112-9.779-3.569c-4.157-3.438-6.634-7.744-6.84-13.225
		c-0.049-4.593,2.363-8.075,5.163-11.385c4.71-4.996,10.689-3.664,16.471-3.311c1.112,0.539,2.23,1.073,3.343,1.612
		C220.812,196.266,222.745,201.416,222.188,207.678z"/>
</g>
</svg>
